<svg width="32" height="33" viewBox="0 0 32 33" fill="none" xmlns="http://www.w3.org/2000/svg">
<g clip-path="url(#clip0_214_51)">
<path d="M14.586 16.5L11.7579 13.672C11.5758 13.4834 11.475 13.2308 11.4773 12.9686C11.4796 12.7064 11.5847 12.4556 11.7701 12.2702C11.9555 12.0848 12.2063 11.9796 12.4685 11.9773C12.7307 11.975 12.9833 12.0758 13.172 12.258L16 15.086L18.828 12.258C18.9202 12.1625 19.0306 12.0863 19.1526 12.0339C19.2746 11.9815 19.4058 11.9539 19.5386 11.9528C19.6714 11.9516 19.803 11.9769 19.9259 12.0272C20.0488 12.0775 20.1605 12.1517 20.2544 12.2456C20.3483 12.3395 20.4225 12.4512 20.4728 12.5741C20.5231 12.6969 20.5484 12.8286 20.5472 12.9614C20.5461 13.0942 20.5185 13.2254 20.4661 13.3474C20.4137 13.4694 20.3375 13.5798 20.242 13.672L17.414 16.5L20.242 19.328C20.3375 19.4203 20.4137 19.5306 20.4661 19.6526C20.5185 19.7746 20.5461 19.9059 20.5472 20.0386C20.5484 20.1714 20.5231 20.3031 20.4728 20.426C20.4225 20.5489 20.3483 20.6605 20.2544 20.7544C20.1605 20.8483 20.0488 20.9226 19.9259 20.9729C19.803 21.0231 19.6714 21.0484 19.5386 21.0473C19.4058 21.0461 19.2746 21.0186 19.1526 20.9661C19.0306 20.9137 18.9202 20.8376 18.828 20.742L16 17.914L13.172 20.742C12.9833 20.9242 12.7307 21.025 12.4685 21.0227C12.2063 21.0204 11.9555 20.9153 11.7701 20.7299C11.5847 20.5444 11.4796 20.2936 11.4773 20.0314C11.475 19.7692 11.5758 19.5166 11.7579 19.328L14.586 16.5Z" fill="#898989"/>
<path d="M16 28.5C17.5759 28.5 19.1363 28.1896 20.5922 27.5866C22.0481 26.9835 23.371 26.0996 24.4853 24.9853C25.5996 23.871 26.4835 22.5481 27.0866 21.0922C27.6896 19.6363 28 18.0759 28 16.5C28 14.9241 27.6896 13.3637 27.0866 11.9078C26.4835 10.4519 25.5996 9.12902 24.4853 8.01472C23.371 6.90042 22.0481 6.0165 20.5922 5.41345C19.1363 4.81039 17.5759 4.5 16 4.5C12.8174 4.5 9.76515 5.76428 7.51472 8.01472C5.26428 10.2652 4 13.3174 4 16.5C4 19.6826 5.26428 22.7348 7.51472 24.9853C9.76515 27.2357 12.8174 28.5 16 28.5ZM16 30.5C12.287 30.5 8.72601 29.025 6.1005 26.3995C3.475 23.774 2 20.213 2 16.5C2 12.787 3.475 9.22601 6.1005 6.6005C8.72601 3.975 12.287 2.5 16 2.5C19.713 2.5 23.274 3.975 25.8995 6.6005C28.525 9.22601 30 12.787 30 16.5C30 20.213 28.525 23.774 25.8995 26.3995C23.274 29.025 19.713 30.5 16 30.5Z" fill="#898989"/>
</g>
<defs>
<clipPath id="clip0_214_51">
<rect width="32" height="32" fill="white" transform="translate(0 0.5)"/>
</clipPath>
</defs>
</svg>
