<svg width="32" height="33" viewBox="0 0 32 33" fill="none" xmlns="http://www.w3.org/2000/svg">
<path d="M14.4117 10.6703L11.0851 6.83041C10.7016 6.38791 9.99852 6.38987 9.55307 6.83631L6.81744 9.57685C6.00324 10.392 5.77019 11.6025 6.24121 12.5731C9.05513 18.3993 13.7539 23.1046 19.5762 25.9267C20.5457 26.3977 21.7552 26.1647 22.5694 25.3495L25.3306 22.5834C25.778 22.136 25.779 21.429 25.3326 21.0455L21.4779 17.7365C21.0748 17.3904 20.4484 17.4356 20.0442 17.8408L18.703 19.184C18.6343 19.256 18.5439 19.3034 18.4457 19.319C18.3475 19.3347 18.2468 19.3176 18.1592 19.2705C15.9668 18.008 14.1482 16.187 12.8885 13.993C12.8414 13.9052 12.8243 13.8044 12.8399 13.706C12.8555 13.6076 12.903 13.5171 12.9751 13.4482L14.3124 12.1099C14.7175 11.7028 14.7618 11.0735 14.4117 10.6693V10.6703Z" stroke="#898989" stroke-width="1.96666" stroke-linecap="round" stroke-linejoin="round"/>
</svg>
